<svg width="335" height="335" viewBox="0 0 88.635 88.635" xmlns="http://www.w3.org/2000/svg"><defs><path id="c" d="M494.072 62.792h163.18v71.458h-163.18z"/><path id="b" d="M566.596 134.117h62.526v63.459h-62.526z"/><path id="a" d="M688.181 149.848h243.303v103.987H688.181z"/></defs><g style="display:inline"><text xml:space="preserve" style="font-style:normal;font-weight:400;font-size:10.5833px;line-height:1.25;font-family:sans-serif;-inkscape-font-specification:'sans-serif, Normal';display:inline;fill:#dfc7d0;fill-opacity:1;stroke:none;stroke-width:.0700042" x="22.268" y="67.708" transform="translate(17.466 16.715)"><tspan style="font-style:normal;font-variant:normal;font-weight:400;font-stretch:normal;font-size:105.833px;font-family:'Grand Hotel';-inkscape-font-specification:'Grand Hotel, Normal';font-variant-ligatures:normal;font-variant-caps:normal;font-variant-numeric:normal;font-variant-east-asian:normal;fill:#dfc7d0;fill-opacity:1;stroke-width:.0700042" x="22.268" y="67.708">S</tspan></text><text xml:space="preserve" style="font-style:normal;font-weight:400;font-size:10.5833px;line-height:1.25;font-family:sans-serif;display:inline;fill:#4b1a2d;fill-opacity:1;stroke:none;stroke-width:2.665;stroke-miterlimit:4;stroke-dasharray:none;stroke-opacity:1" x="-14.398" y="57.756" transform="translate(17.466 16.715)"><tspan style="font-style:normal;font-variant:normal;font-weight:500;font-stretch:normal;font-size:105.833px;font-family:Montserrat;-inkscape-font-specification:'Montserrat, Medium';font-variant-ligatures:normal;font-variant-caps:normal;font-variant-numeric:normal;font-variant-east-asian:normal;fill:#4b1a2d;fill-opacity:1;stroke:none;stroke-width:2.665;stroke-miterlimit:4;stroke-dasharray:none;stroke-opacity:1" x="-14.398" y="57.756">V</tspan></text><path style="font-style:normal;font-weight:400;font-size:10.5833px;line-height:1.25;font-family:sans-serif;-inkscape-font-specification:'sans-serif, Normal';display:inline;fill:#dfc7d0;fill-opacity:1;stroke:none;stroke-width:.0700042" d="M30.002 7.31c-.116.167-.232.335-.345.505a29.143 29.143 0 0 0-3.255 6.666c-.793 2.343-1.189 4.669-1.189 6.977 0 2.687.362 5.081 1.085 7.183.758 2.067 1.74 3.927 2.946 5.58a23.845 23.845 0 0 0 4.134 4.393 65.745 65.745 0 0 0 4.754 3.565c1.62 1.103 3.204 2.17 4.754 3.204 1.55 1 2.929 2.033 4.135 3.101 1.205 1.068 2.17 2.222 2.893 3.462.758 1.24 1.137 2.653 1.137 4.238 0 2.274-.689 4.082-2.067 5.426-1.378 1.309-3.152 1.963-5.322 1.963-1 0-1.878-.12-2.636-.361-.723-.241-1.344-.5-1.86-.775-.483-.31-.862-.603-1.137-.879l-.517-.517c-.31-.62-.706-.93-1.189-.93-.378 0-.81.207-1.291.62-.483.414-.93.93-1.344 1.55a8.85 8.85 0 0 0-1.034 1.964c-.275.69-.413 1.344-.413 1.964 0 .172.172.551.517 1.137.344.551.947 1.137 1.808 1.757.862.62 2.033 1.171 3.514 1.654 1.482.516 3.342.775 5.582.775 2.204 0 4.271-.414 6.2-1.24 1.93-.827 3.6-1.947 5.013-3.36a15.27 15.27 0 0 0 3.308-4.96 15.319 15.319 0 0 0 1.24-6.098c0-2.205-.38-4.152-1.137-5.84a16.387 16.387 0 0 0-2.946-4.65 24.312 24.312 0 0 0-4.134-3.825 90.981 90.981 0 0 0-4.754-3.358 284.122 284.122 0 0 1-4.754-3.307 28.47 28.47 0 0 1-4.186-3.618 17.56 17.56 0 0 1-2.946-4.34c-.723-1.62-1.085-3.446-1.085-5.478 0-1.93.328-3.773.982-5.53a21.537 21.537 0 0 1 2.687-4.96 24.658 24.658 0 0 1 3.19-3.659zm30.094 0c-.15 1.476-.663 2.988-1.552 4.536a23.03 23.03 0 0 1-3.875 5.116c-1.55 1.55-3.204 2.825-4.961 3.824-1.757.999-3.36 1.499-4.806 1.499-.448 0-.844-.035-1.189-.104a3.149 3.149 0 0 0-.878-.155.56.56 0 0 0-.517.155c-.103.138-.155.43-.155.879 0 .55.138 1.188.413 1.912.276.689.655 1.36 1.137 2.015a7.618 7.618 0 0 0 1.86 1.602c.758.413 1.603.62 2.533.62 1.068 0 2.308-.293 3.72-.878 1.413-.586 2.86-1.396 4.341-2.43a33.556 33.556 0 0 0 4.393-3.72 31.6 31.6 0 0 0 3.875-4.702 24.699 24.699 0 0 0 2.74-5.375 16.911 16.911 0 0 0 1-4.795z" transform="translate(17.466 16.715)"/></g></svg>