<svg xmlns="http://www.w3.org/2000/svg" viewBox="0 0 260 260"><defs><style>.cls-1{fill:#dfc7d0;}.cls-2{fill:#582c3e;}</style></defs><g id="Vrstva_4" data-name="Vrstva 4"><path class="cls-1" d="M166.49,259A49.47,49.47,0,0,1,151,256.92a37,37,0,0,1-9.76-4.67,18.09,18.09,0,0,1-5-4.95,8.74,8.74,0,0,1-1.44-3.09,15.13,15.13,0,0,1,1.15-5.52,27.26,27.26,0,0,1,2.87-5.46,21.57,21.57,0,0,1,3.74-4.23,5.83,5.83,0,0,1,3.58-1.73c1.34,0,2.44.87,3.31,2.59l1.43,1.43a15.9,15.9,0,0,0,3.23,2.37,26.15,26.15,0,0,0,5.17,2.23,23.48,23.48,0,0,0,7.25,1q9,0,14.79-5.52t5.74-15a22.5,22.5,0,0,0-3.09-11.77,41.14,41.14,0,0,0-8.11-9.62,100.85,100.85,0,0,0-11.48-8.68q-6.47-4.23-13.21-8.83t-13.21-9.9a65.61,65.61,0,0,1-11.48-12.21,60.47,60.47,0,0,1-8.11-15.57,59.15,59.15,0,0,1-3.09-19.88,60.16,60.16,0,0,1,3.3-19.38,80.37,80.37,0,0,1,9.12-18.59,100.82,100.82,0,0,1,30.79-29.86,87.75,87.75,0,0,1,19.16-8.9,64.55,64.55,0,0,1,20-3.23,42,42,0,0,1,15.5,2.72,32.28,32.28,0,0,1,11.63,7.68,34.26,34.26,0,0,1,7.32,11.92,44.3,44.3,0,0,1,2.59,15.57,46.79,46.79,0,0,1-2.87,16.08,68.67,68.67,0,0,1-7.61,14.93,87.38,87.38,0,0,1-10.7,13,91.64,91.64,0,0,1-12.2,10.34A64.17,64.17,0,0,1,189.17,139a27.57,27.57,0,0,1-10.34,2.44,13.57,13.57,0,0,1-7-1.8,17.7,17.7,0,0,1-5.17-4.45,22.4,22.4,0,0,1-3.23-5.59,14.79,14.79,0,0,1-1.14-5.24,4,4,0,0,1,.5-2.44,1.62,1.62,0,0,1,1.43-.51,16.42,16.42,0,0,1,2.37.43,13.66,13.66,0,0,0,3.3.36q6,0,13.35-4.16a65.08,65.08,0,0,0,13.79-10.62A66.08,66.08,0,0,0,207.9,93.19a30.55,30.55,0,0,0,4.38-15.07q0-7.45-3.66-11.77T196.2,62a38.66,38.66,0,0,0-11.84,2.08,67.73,67.73,0,0,0-12.85,5.82A78.25,78.25,0,0,0,159,79a69.88,69.88,0,0,0-10.62,11.7A59.77,59.77,0,0,0,141,104.46a43.18,43.18,0,0,0-2.8,15.44A35.8,35.8,0,0,0,141.29,135a45.79,45.79,0,0,0,8.19,12.13A75.68,75.68,0,0,0,161,157.22q6.47,4.59,13.21,9.12t13.21,9.33A73.7,73.7,0,0,1,199,186.29a49.29,49.29,0,0,1,8.19,12.92,40.7,40.7,0,0,1,3.08,16.29,42.78,42.78,0,0,1-3.37,16.87,43.22,43.22,0,0,1-9.26,13.85,43.81,43.81,0,0,1-13.93,9.33A43.2,43.2,0,0,1,166.49,259Z"/></g><g id="Vrstva_2" data-name="Vrstva 2"><path class="cls-2" d="M99.56,225,1,1H35.56l90.56,206.72H106.28L197.48,1h32L131.24,225Z"/></g><g id="Vrstva_3" data-name="Vrstva 3"><path class="cls-1" d="M199,186.29a73.7,73.7,0,0,0-11.55-10.62q-6.47-4.81-13.21-9.33T161,157.22a75.68,75.68,0,0,1-11.55-10.05A45.79,45.79,0,0,1,141.29,135a31.26,31.26,0,0,1-1.57-4.22,4.57,4.57,0,0,1-3.88,1.9,5.44,5.44,0,0,1-1.56-.23c-1.54,2.17-3.68,4.16-4.75,6.6a36.8,36.8,0,0,0-2.18,7,4.26,4.26,0,0,1-4.56,3.58,56.27,56.27,0,0,0,3.65,5.69,65.61,65.61,0,0,0,11.48,12.21q6.47,5.31,13.21,9.9t13.21,8.83A100.85,100.85,0,0,1,175.82,195a41.14,41.14,0,0,1,8.11,9.62A22.5,22.5,0,0,1,187,216.36q0,9.48-5.74,15t-14.79,5.52a23.48,23.48,0,0,1-7.25-1,26.15,26.15,0,0,1-5.17-2.23,15.9,15.9,0,0,1-3.23-2.37l-1.43-1.43c-.87-1.72-2-2.59-3.31-2.59a5.83,5.83,0,0,0-3.58,1.73,21.57,21.57,0,0,0-3.74,4.23,27.26,27.26,0,0,0-2.87,5.46,15.13,15.13,0,0,0-1.15,5.52,8.74,8.74,0,0,0,1.44,3.09,18.09,18.09,0,0,0,5,4.95,37,37,0,0,0,9.76,4.67A49.47,49.47,0,0,0,166.49,259a43.2,43.2,0,0,0,17.22-3.45,43.81,43.81,0,0,0,13.93-9.33,43.22,43.22,0,0,0,9.26-13.85,42.78,42.78,0,0,0,3.37-16.87,40.7,40.7,0,0,0-3.08-16.29A49.29,49.29,0,0,0,199,186.29Z"/></g><g id="Vrstva_5" data-name="Vrstva 5"><path class="cls-1" d="M169.93,122.19a13.66,13.66,0,0,1-3.3-.36,16.42,16.42,0,0,0-2.37-.43,1.62,1.62,0,0,0-1.43.51,4,4,0,0,0-.5,2.44,14.79,14.79,0,0,0,1.14,5.24,22.4,22.4,0,0,0,3.23,5.59,17.7,17.7,0,0,0,5.17,4.45,13.21,13.21,0,0,0,5.6,1.72,5.61,5.61,0,0,1,.5-5.07,5.44,5.44,0,0,1,1.13-5.17,5.66,5.66,0,0,1,.15-4.89,5.49,5.49,0,0,1-.79-5.85A23.07,23.07,0,0,1,169.93,122.19Z"/></g></svg>