<?xml version="1.0" standalone="no"?>
<!DOCTYPE svg PUBLIC "-//W3C//DTD SVG 20010904//EN"
 "http://www.w3.org/TR/2001/REC-SVG-20010904/DTD/svg10.dtd">
<svg version="1.0" xmlns="http://www.w3.org/2000/svg"
 width="700.000000pt" height="700.000000pt" viewBox="0 0 700.000000 700.000000"
 preserveAspectRatio="xMidYMid meet">
<metadata>
Created by potrace 1.14, written by Peter Selinger 2001-2017
</metadata>
<g transform="translate(0.000000,700.000000) scale(0.100000,-0.100000)"
fill="#000000" stroke="none">
<path d="M33 6967 c-3 -4 -1 -13 4 -20 5 -7 22 -43 38 -82 16 -38 43 -101 60
-140 18 -38 72 -160 120 -270 48 -110 97 -222 110 -250 12 -27 37 -84 55 -125
17 -41 40 -93 50 -115 15 -34 53 -119 150 -340 10 -22 59 -134 110 -250 51
-115 151 -343 222 -505 72 -162 170 -387 220 -500 49 -113 99 -225 110 -250
11 -25 35 -79 53 -120 18 -41 117 -266 220 -500 103 -234 191 -435 196 -447 4
-12 21 -50 37 -85 17 -35 42 -91 56 -126 15 -34 39 -91 55 -125 15 -34 68
-152 116 -262 48 -110 95 -218 105 -240 10 -22 118 -267 240 -545 122 -278
229 -521 237 -540 9 -19 31 -69 49 -110 l33 -75 428 0 428 0 92 210 c50 116
99 228 109 250 74 169 107 244 119 270 14 31 102 233 183 418 26 59 50 107 54
107 12 0 399 -261 498 -336 190 -144 308 -271 376 -405 45 -91 64 -173 64
-289 0 -170 -44 -286 -149 -390 -111 -109 -231 -154 -411 -153 -123 1 -226 29
-325 88 -53 31 -81 56 -157 143 -54 60 -163 -3 -262 -153 -84 -125 -115 -259
-78 -331 79 -154 311 -286 582 -330 100 -17 308 -22 400 -10 518 66 927 455
1016 967 24 140 15 371 -20 499 -34 123 -119 293 -200 400 -148 198 -326 347
-761 641 -77 52 -145 99 -152 104 -6 6 -48 35 -92 65 -81 55 -89 66 -71 98 10
19 40 84 112 252 27 63 61 139 75 168 l24 53 27 -17 c15 -9 36 -23 47 -30 61
-38 191 -51 299 -29 103 21 297 111 435 202 259 173 516 431 683 688 53 81
166 296 172 327 3 14 11 38 26 75 42 104 68 281 64 437 -2 128 -4 150 -18 211
-3 17 -8 41 -11 54 -17 88 -86 249 -147 340 -78 118 -260 261 -390 308 -57 20
-57 21 -9 125 16 35 40 90 54 123 14 33 39 89 55 125 16 36 85 191 151 345 67
154 135 307 150 340 l28 60 -25 5 c-20 4 -758 5 -823 1 -14 -1 -25 -20 -65
-116 -9 -22 -25 -59 -36 -83 -17 -38 -96 -219 -305 -692 -92 -210 -103 -230
-116 -235 -227 -71 -442 -180 -691 -347 -71 -48 -259 -210 -351 -304 -580
-587 -791 -1296 -580 -1949 38 -118 123 -287 199 -399 l68 -98 -23 -52 c-27
-63 -242 -551 -276 -626 l-24 -55 -30 70 c-16 39 -36 84 -43 100 -8 17 -55
125 -106 240 -50 116 -99 228 -109 250 -10 22 -89 202 -176 400 -87 198 -188
430 -225 515 -38 85 -166 378 -285 650 -119 272 -257 587 -307 700 -49 113
-96 219 -103 235 -7 17 -23 53 -35 80 -13 28 -44 100 -70 160 -45 105 -76 175
-105 240 -7 17 -70 159 -139 316 -201 462 -236 542 -255 584 -10 22 -54 121
-96 220 -43 99 -82 184 -87 189 -10 12 -918 14 -925 3z m5498 -1688 c112 -56
180 -194 181 -369 2 -205 -69 -382 -249 -622 -72 -97 -278 -296 -383 -371 -95
-68 -295 -175 -305 -165 -6 6 18 68 69 180 38 85 51 113 331 753 147 336 269
614 272 618 6 9 35 1 84 -24z m-1095 -301 c-40 -94 -170 -388 -186 -423 -106
-235 -470 -1068 -470 -1077 0 -30 -22 15 -37 73 -25 106 -25 333 1 454 49 232
206 530 366 696 8 9 33 36 56 60 55 59 265 244 282 248 1 1 -4 -14 -12 -31z"/>
</g>
</svg>
