<?xml version="1.0" standalone="no"?>
<!DOCTYPE svg PUBLIC "-//W3C//DTD SVG 20010904//EN"
 "http://www.w3.org/TR/2001/REC-SVG-20010904/DTD/svg10.dtd">
<svg version="1.0" xmlns="http://www.w3.org/2000/svg"
 width="260.000000pt" height="260.000000pt" viewBox="0 0 260.000000 260.000000"
 preserveAspectRatio="xMidYMid meet">
<metadata>
Created by potrace 1.14, written by Peter Selinger 2001-2017
</metadata>
<g transform="translate(0.000000,260.000000) scale(0.100000,-0.100000)"
fill="#000000" stroke="none">
<path d="M231 2448 c27 -62 238 -540 468 -1063 l417 -950 158 0 157 0 93 210
c51 116 95 218 99 227 4 13 -15 33 -78 83 -46 37 -96 83 -111 102 -14 19 -30
31 -34 26 -4 -4 -31 -63 -60 -131 -30 -67 -57 -119 -61 -115 -5 5 -176 393
-382 863 l-375 855 -170 3 -171 2 50 -112z"/>
<path d="M2031 2518 c-10 -24 -73 -164 -138 -313 -66 -148 -175 -395 -242
-549 l-123 -279 36 -71 c36 -73 145 -194 164 -182 5 3 26 45 47 93 l37 87 -21
43 c-12 24 -21 60 -21 80 l0 36 44 -6 c27 -4 49 -2 59 6 9 7 73 143 143 302
260 594 344 787 344 791 0 2 -70 4 -155 4 l-156 0 -18 -42z"/>
</g>
</svg>
