<svg xmlns="http://www.w3.org/2000/svg" width="375" viewBox="0 0 375 120" height="120" version="1.0"><defs><clipPath id="a"><path d="M 0 0 L 374.25 0 L 374.25 120 L 0 120 Z M 0 0"/></clipPath></defs><g clip-path="url(#a)"><path fill="#582C3E" d="M 371.648438 82.070312 C 371.011719 82.070312 370.433594 82.484375 370.132812 83.34375 C 366.296875 94.296875 361.113281 100.8125 356.847656 100.8125 C 354.394531 100.8125 353.402344 98.078125 353.402344 93.789062 C 353.402344 83.0625 359.824219 60.316406 363.058594 49.945312 C 363.433594 48.691406 363.675781 47.570312 363.675781 46.613281 C 363.675781 43.601562 362.03125 42.121094 357.953125 42.121094 C 353.554688 42.121094 348.820312 43.84375 344.214844 51.914062 C 342.625 44.796875 337.816406 41.691406 331.097656 41.691406 C 323.332031 41.691406 315.828125 46.691406 309.65625 54.796875 C 303.480469 62.902344 296.21875 65.558594 290.753906 64.25 C 294.683594 54.628906 296.144531 47.4375 296.144531 42.101562 C 296.144531 33.734375 292.007812 28.679688 285.328125 28.679688 C 275.167969 28.679688 269.308594 38.378906 269.308594 48.582031 C 269.308594 56.460938 272.882812 64.566406 280.742188 68.5 C 274.15625 83.402344 264.539062 96.878906 260.890625 96.878906 C 256.175781 96.878906 254.789062 73.796875 255.050781 57.285156 C 255.21875 47.8125 256.003906 47.324219 256.003906 44.460938 C 256.003906 42.8125 254.9375 41.691406 250.652344 41.691406 C 240.660156 41.691406 237.574219 50.152344 237.105469 59.867188 C 236.957031 63.558594 236.375 67.226562 235.382812 70.78125 C 231.210938 85.683594 222.605469 96.992188 216.988281 96.992188 C 214.390625 96.992188 213.679688 94.390625 213.679688 90.984375 C 213.679688 80.253906 219.683594 66.851562 219.683594 55.414062 C 219.683594 47.007812 216 41.691406 209.054688 41.691406 C 200.878906 41.691406 190.0625 51.425781 179.828125 69.660156 C 183.195312 55.695312 184.582031 42.179688 174.605469 42.179688 C 172.4375 42.214844 170.320312 42.757812 168.414062 43.789062 C 167.101562 44.40625 166.296875 45.753906 166.390625 47.195312 C 167.347656 62.058594 154.414062 100.136719 142.160156 100.136719 C 139.933594 100.136719 138.847656 97.722656 138.847656 93.828125 C 138.847656 83.082031 145.246094 60.394531 148.464844 50.003906 C 148.875 48.65625 149.101562 47.496094 149.101562 46.484375 C 149.101562 43.636719 147.34375 42.179688 143.355469 42.179688 C 138.976562 42.179688 134.226562 43.84375 129.640625 51.914062 C 128.03125 44.796875 123.222656 41.691406 116.503906 41.691406 C 105.480469 41.691406 93.167969 53.355469 87.761719 68.554688 C 80.519531 88.847656 65.925781 108.449219 46.277344 108.449219 C 28.441406 108.449219 19.03125 93.605469 19.03125 70.148438 C 19.03125 36.28125 43.878906 8.613281 62.3125 8.613281 C 71.125 8.613281 75.335938 14.226562 75.335938 22.839844 C 75.335938 33.265625 69.515625 38.117188 69.515625 42.085938 C 69.515625 43.300781 70.527344 44.5 72.53125 44.5 C 80.539062 44.5 89.96875 35.082031 89.96875 22.242188 C 89.96875 9.398438 79.546875 0 61.113281 0 C 30.652344 0 0 30.664062 0 69.960938 C 0 101.222656 15.417969 120.074219 42.085938 120.074219 C 60.273438 120.074219 76.160156 105.921875 84.730469 89.410156 C 85.703125 103.09375 91.914062 110.246094 101.382812 110.246094 C 109.804688 110.246094 116.617188 105.230469 121.820312 96.410156 C 123.820312 105.640625 129.136719 110.152344 136.039062 110.152344 C 143.957031 110.152344 150.578125 105.136719 156.886719 95.8125 C 156.792969 103.132812 158.457031 110.023438 164.800781 110.023438 C 167.796875 110.023438 171.367188 109.328125 172.003906 106.707031 C 178.6875 79.078125 195.191406 56.519531 200.242188 56.519531 C 201.738281 56.519531 202.152344 57.960938 202.152344 59.664062 C 202.152344 67.171875 196.855469 82.558594 196.855469 92.386719 C 196.855469 103 201.363281 110.023438 210.683594 110.023438 C 221.011719 110.023438 231.511719 97.367188 238.507812 78.871094 C 240.699219 96.148438 245.433594 110.097656 252.84375 110.097656 C 261.9375 110.097656 278.085938 90.945312 287.875 70.671875 C 291.710938 71.15625 297.472656 71.027344 303.011719 67.113281 C 300.652344 73.085938 299.269531 79.621094 299.269531 86.152344 C 299.269531 104.96875 308.25 110.246094 315.980469 110.246094 C 324.382812 110.246094 331.191406 105.230469 336.414062 96.410156 C 338.136719 104.367188 342.53125 110.132812 350.617188 110.132812 C 363.265625 110.132812 374.25 97.199219 374.25 86.582031 C 374.25 83.773438 373.050781 82.070312 371.648438 82.070312 Z M 109.09375 99.820312 C 103.984375 99.820312 101.984375 94.671875 101.984375 86.996094 C 101.984375 73.667969 111.097656 51.40625 120.734375 51.40625 C 124.941406 51.40625 126.535156 56.367188 126.535156 62.433594 C 126.535156 75.96875 117.871094 99.820312 109.09375 99.820312 Z M 284.074219 60.039062 C 281.023438 56.40625 279.921875 51.464844 279.921875 47.0625 C 279.921875 41.636719 281.902344 37.046875 284.28125 37.046875 C 286.65625 37.046875 287.386719 39.386719 287.386719 42.644531 C 287.386719 48.09375 285.441406 56.050781 284.074219 60.039062 Z M 323.6875 99.820312 C 318.582031 99.820312 316.578125 93.902344 316.578125 86.996094 C 316.578125 74.132812 325.691406 51.40625 335.402344 51.40625 C 339.613281 51.40625 341.109375 56.332031 341.109375 62.433594 C 341.109375 75.96875 332.597656 99.820312 323.6875 99.820312 Z M 323.6875 99.820312"/></g></svg>