<svg xmlns="http://www.w3.org/2000/svg" width="375" viewBox="0 0 375 120" height="120" version="1.0"><defs><clipPath id="a"><path d="M 37.734375 12 L 336.984375 12 L 336.984375 108 L 37.734375 108 Z M 37.734375 12"/></clipPath></defs><g clip-path="url(#a)"><path fill="#582C3E" d="M 334.902344 77.65625 C 334.394531 77.65625 333.933594 77.988281 333.691406 78.675781 C 330.625 87.4375 326.480469 92.648438 323.070312 92.648438 C 321.109375 92.648438 320.316406 90.460938 320.316406 87.03125 C 320.316406 78.449219 325.449219 60.253906 328.035156 51.957031 C 328.335938 50.953125 328.53125 50.054688 328.53125 49.292969 C 328.53125 46.878906 327.214844 45.699219 323.953125 45.699219 C 320.433594 45.699219 316.648438 47.074219 312.96875 53.53125 C 311.699219 47.839844 307.851562 45.351562 302.480469 45.351562 C 296.269531 45.351562 290.269531 49.351562 285.332031 55.835938 C 280.394531 62.320312 274.589844 64.449219 270.222656 63.398438 C 273.363281 55.703125 274.53125 49.949219 274.53125 45.683594 C 274.53125 38.988281 271.222656 34.945312 265.882812 34.945312 C 257.757812 34.945312 253.074219 42.703125 253.074219 50.863281 C 253.074219 57.167969 255.933594 63.652344 262.214844 66.800781 C 256.949219 78.71875 249.257812 89.503906 246.339844 89.503906 C 242.570312 89.503906 241.464844 71.039062 241.671875 57.828125 C 241.808594 50.25 242.4375 49.859375 242.4375 47.570312 C 242.4375 46.25 241.582031 45.351562 238.15625 45.351562 C 230.167969 45.351562 227.699219 52.121094 227.324219 59.894531 C 227.203125 62.84375 226.742188 65.78125 225.949219 68.625 C 222.609375 80.546875 215.726562 89.59375 211.238281 89.59375 C 209.160156 89.59375 208.589844 87.511719 208.589844 84.785156 C 208.589844 76.203125 213.394531 65.480469 213.394531 56.332031 C 213.394531 49.605469 210.445312 45.351562 204.894531 45.351562 C 198.355469 45.351562 189.707031 53.140625 181.523438 67.726562 C 184.21875 56.554688 185.324219 45.742188 177.347656 45.742188 C 175.613281 45.773438 173.921875 46.207031 172.398438 47.03125 C 171.347656 47.523438 170.707031 48.601562 170.78125 49.757812 C 171.542969 61.648438 161.203125 92.109375 151.402344 92.109375 C 149.625 92.109375 148.753906 90.179688 148.753906 87.0625 C 148.753906 78.464844 153.871094 60.316406 156.445312 52.003906 C 156.777344 50.925781 156.957031 49.996094 156.957031 49.1875 C 156.957031 46.910156 155.546875 45.742188 152.363281 45.742188 C 148.859375 45.742188 145.058594 47.074219 141.394531 53.53125 C 140.109375 47.839844 136.261719 45.351562 130.890625 45.351562 C 122.078125 45.351562 112.230469 54.683594 107.90625 66.84375 C 102.117188 83.078125 90.445312 98.757812 74.734375 98.757812 C 60.476562 98.757812 52.949219 86.882812 52.949219 68.117188 C 52.949219 41.023438 72.820312 18.890625 87.558594 18.890625 C 94.605469 18.890625 97.972656 23.382812 97.972656 30.273438 C 97.972656 38.613281 93.320312 42.492188 93.320312 45.667969 C 93.320312 46.640625 94.128906 47.597656 95.730469 47.597656 C 102.132812 47.597656 109.671875 40.066406 109.671875 29.792969 C 109.671875 19.519531 101.339844 12 86.601562 12 C 62.242188 12 37.734375 36.53125 37.734375 67.96875 C 37.734375 92.976562 50.0625 108.058594 71.382812 108.058594 C 85.929688 108.058594 98.632812 96.738281 105.484375 83.527344 C 106.261719 94.476562 111.230469 100.195312 118.800781 100.195312 C 125.535156 100.195312 130.980469 96.183594 135.140625 89.128906 C 136.742188 96.511719 140.988281 100.121094 146.511719 100.121094 C 152.839844 100.121094 158.136719 96.109375 163.179688 88.648438 C 163.105469 94.507812 164.4375 100.015625 169.507812 100.015625 C 171.902344 100.015625 174.761719 99.464844 175.269531 97.367188 C 180.609375 75.261719 193.808594 57.214844 197.847656 57.214844 C 199.042969 57.214844 199.375 58.367188 199.375 59.730469 C 199.375 65.734375 195.140625 78.046875 195.140625 85.910156 C 195.140625 94.402344 198.746094 100.015625 206.195312 100.015625 C 214.457031 100.015625 222.851562 89.894531 228.445312 75.097656 C 230.195312 88.917969 233.980469 100.078125 239.90625 100.078125 C 247.179688 100.078125 260.089844 84.757812 267.917969 68.535156 C 270.984375 68.925781 275.59375 68.820312 280.023438 65.691406 C 278.136719 70.46875 277.027344 75.695312 277.027344 80.921875 C 277.027344 95.972656 284.210938 100.195312 290.390625 100.195312 C 297.109375 100.195312 302.554688 96.183594 306.730469 89.128906 C 308.105469 95.496094 311.621094 100.105469 318.085938 100.105469 C 328.199219 100.105469 336.984375 89.757812 336.984375 81.265625 C 336.984375 79.019531 336.027344 77.65625 334.902344 77.65625 Z M 124.964844 91.855469 C 120.878906 91.855469 119.28125 87.738281 119.28125 81.597656 C 119.28125 70.933594 126.566406 53.125 134.273438 53.125 C 137.636719 53.125 138.910156 57.09375 138.910156 61.945312 C 138.910156 72.773438 131.984375 91.855469 124.964844 91.855469 Z M 264.878906 60.03125 C 262.441406 57.125 261.558594 53.171875 261.558594 49.652344 C 261.558594 45.308594 263.144531 41.640625 265.042969 41.640625 C 266.945312 41.640625 267.527344 43.511719 267.527344 46.117188 C 267.527344 50.476562 265.972656 56.839844 264.878906 60.03125 Z M 296.554688 91.855469 C 292.46875 91.855469 290.871094 87.121094 290.871094 81.597656 C 290.871094 71.308594 298.15625 53.125 305.921875 53.125 C 309.289062 53.125 310.484375 57.066406 310.484375 61.945312 C 310.484375 72.773438 303.675781 91.855469 296.554688 91.855469 Z M 296.554688 91.855469"/></g></svg>