<svg xmlns="http://www.w3.org/2000/svg" width="375" viewBox="0 0 375 375" height="375" version="1.0"><defs><clipPath id="a"><path d="M 58.125 0 L 316.875 0 L 316.875 375 L 58.125 375 Z M 58.125 0"/></clipPath></defs><g clip-path="url(#a)"><path fill="#4B1A2F" d="M 142.242188 0 C 103.023438 0 71.121094 31.902344 71.121094 71.121094 C 71.121094 92.558594 80.695312 111.765625 95.746094 124.816406 C 73.414062 136.824219 58.191406 160.414062 58.191406 187.5 C 58.191406 211.558594 70.238281 232.8125 88.574219 245.691406 C 70.238281 258.566406 58.191406 279.820312 58.191406 303.878906 C 58.191406 343.097656 90.089844 375 129.308594 375 C 168.53125 375 200.429688 343.097656 200.429688 303.878906 L 200.429688 142.242188 L 245.691406 142.242188 C 284.910156 142.242188 316.808594 110.339844 316.808594 71.121094 C 316.808594 31.902344 284.910156 0 245.691406 0 Z M 142.242188 25.863281 L 245.691406 25.863281 C 270.648438 25.863281 290.949219 46.164062 290.949219 71.121094 C 290.949219 96.078125 270.648438 116.378906 245.691406 116.378906 L 142.242188 116.378906 C 117.285156 116.378906 96.984375 96.078125 96.984375 71.121094 C 96.984375 46.164062 117.285156 25.863281 142.242188 25.863281 Z M 129.308594 142.242188 L 174.570312 142.242188 L 174.570312 232.757812 L 129.308594 232.757812 C 104.351562 232.757812 84.050781 212.457031 84.050781 187.5 C 84.050781 162.542969 104.351562 142.242188 129.308594 142.242188 Z M 252.15625 142.242188 C 250.460938 142.242188 248.769531 142.324219 247.085938 142.492188 C 245.398438 142.65625 243.726562 142.90625 242.0625 143.234375 C 240.402344 143.566406 238.761719 143.976562 237.140625 144.46875 C 235.519531 144.960938 233.925781 145.53125 232.359375 146.179688 C 230.796875 146.828125 229.265625 147.550781 227.773438 148.347656 C 226.277344 149.148438 224.828125 150.015625 223.417969 150.957031 C 222.011719 151.898438 220.652344 152.90625 219.339844 153.980469 C 218.03125 155.058594 216.777344 156.191406 215.582031 157.390625 C 214.382812 158.589844 213.246094 159.84375 212.171875 161.152344 C 211.097656 162.460938 210.089844 163.820312 209.148438 165.230469 C 208.207031 166.636719 207.335938 168.089844 206.539062 169.582031 C 205.738281 171.078125 205.015625 172.605469 204.367188 174.171875 C 203.71875 175.738281 203.148438 177.328125 202.660156 178.949219 C 202.167969 180.570312 201.753906 182.214844 201.425781 183.875 C 201.09375 185.535156 200.847656 187.210938 200.679688 188.894531 C 200.515625 190.582031 200.429688 192.273438 200.429688 193.964844 C 200.429688 195.660156 200.515625 197.347656 200.679688 199.035156 C 200.847656 200.722656 201.09375 202.394531 201.425781 204.054688 C 201.753906 205.71875 202.167969 207.359375 202.660156 208.980469 C 203.148438 210.601562 203.71875 212.195312 204.367188 213.757812 C 205.015625 215.324219 205.738281 216.855469 206.539062 218.347656 C 207.335938 219.84375 208.207031 221.292969 209.148438 222.703125 C 210.089844 224.109375 211.097656 225.46875 212.171875 226.777344 C 213.246094 228.089844 214.382812 229.34375 215.582031 230.539062 C 216.777344 231.738281 218.03125 232.875 219.339844 233.949219 C 220.652344 235.023438 222.011719 236.03125 223.417969 236.972656 C 224.828125 237.914062 226.277344 238.785156 227.773438 239.582031 C 229.265625 240.378906 230.796875 241.105469 232.359375 241.753906 C 233.925781 242.402344 235.519531 242.96875 237.140625 243.460938 C 238.761719 243.953125 240.402344 244.367188 242.0625 244.695312 C 243.726562 245.027344 245.398438 245.273438 247.085938 245.441406 C 248.769531 245.605469 250.460938 245.691406 252.15625 245.691406 C 253.847656 245.691406 255.539062 245.605469 257.226562 245.441406 C 258.910156 245.273438 260.585938 245.027344 262.246094 244.695312 C 263.90625 244.367188 265.546875 243.953125 267.167969 243.460938 C 268.789062 242.96875 270.382812 242.402344 271.949219 241.753906 C 273.515625 241.105469 275.042969 240.378906 276.539062 239.582031 C 278.03125 238.785156 279.484375 237.914062 280.890625 236.972656 C 282.300781 236.03125 283.660156 235.023438 284.96875 233.949219 C 286.277344 232.875 287.53125 231.738281 288.730469 230.539062 C 289.925781 229.34375 291.0625 228.089844 292.136719 226.777344 C 293.214844 225.46875 294.222656 224.109375 295.164062 222.703125 C 296.101562 221.292969 296.972656 219.84375 297.773438 218.347656 C 298.570312 216.855469 299.292969 215.324219 299.941406 213.757812 C 300.589844 212.195312 301.160156 210.601562 301.652344 208.980469 C 302.144531 207.359375 302.554688 205.71875 302.886719 204.054688 C 303.214844 202.394531 303.464844 200.722656 303.628906 199.035156 C 303.796875 197.347656 303.878906 195.660156 303.878906 193.964844 C 303.878906 192.273438 303.796875 190.582031 303.628906 188.894531 C 303.464844 187.210938 303.214844 185.535156 302.886719 183.875 C 302.554688 182.214844 302.144531 180.570312 301.652344 178.949219 C 301.160156 177.328125 300.589844 175.738281 299.941406 174.171875 C 299.292969 172.605469 298.570312 171.078125 297.773438 169.582031 C 296.972656 168.089844 296.101562 166.636719 295.164062 165.230469 C 294.222656 163.820312 293.214844 162.460938 292.136719 161.152344 C 291.0625 159.84375 289.925781 158.589844 288.730469 157.390625 C 287.53125 156.191406 286.277344 155.058594 284.96875 153.980469 C 283.660156 152.90625 282.300781 151.898438 280.890625 150.957031 C 279.484375 150.015625 278.03125 149.148438 276.539062 148.347656 C 275.042969 147.550781 273.515625 146.828125 271.949219 146.179688 C 270.382812 145.53125 268.789062 144.960938 267.167969 144.46875 C 265.546875 143.976562 263.90625 143.566406 262.246094 143.234375 C 260.585938 142.90625 258.910156 142.65625 257.226562 142.492188 C 255.539062 142.324219 253.847656 142.242188 252.15625 142.242188 Z M 129.308594 258.621094 L 174.570312 258.621094 L 174.570312 303.878906 C 174.570312 328.835938 154.265625 349.136719 129.308594 349.136719 C 104.351562 349.136719 84.050781 328.835938 84.050781 303.878906 C 84.050781 278.921875 104.351562 258.621094 129.308594 258.621094 Z M 129.308594 258.621094"/></g></svg>