<svg xmlns="http://www.w3.org/2000/svg" width="375" viewBox="0 0 375 375" height="375" version="1.0"><path fill="#4B1A2F" d="M 185.957031 372.652344 C 180.679688 372.652344 175.773438 371.960938 171.511719 370.417969 C 162.777344 367.238281 157.144531 360.800781 155.664062 352.300781 C 154.320312 344.597656 151.773438 343.425781 140.464844 341.375 C 133.070312 340.03125 123.84375 338.347656 117.082031 331.09375 C 103.996094 317.453125 117.730469 302.949219 122.886719 297.484375 C 123.828125 296.496094 125.109375 295.15625 126.15625 293.917969 C 119.675781 290.324219 104.414062 285.292969 94.707031 282.082031 C 71.820312 274.523438 57.390625 269.398438 50.277344 261.960938 C 46.527344 258.132812 44.875 253.179688 45.742188 248.117188 C 47.515625 237.640625 58.84375 232.050781 70.816406 226.15625 C 70.816406 226.15625 70.832031 226.15625 70.832031 226.15625 C 65.324219 224.289062 59.074219 222.59375 52.964844 220.910156 C 31.234375 214.984375 8.78125 208.84375 3.917969 190.894531 C -0.324219 175.109375 11.976562 160.261719 21.621094 150.464844 L 149.105469 17.699219 C 159.042969 7.667969 172.390625 2.144531 186.449219 2.332031 C 186.527344 2.332031 186.605469 2.332031 186.683594 2.332031 C 200.449219 2.332031 213.765625 7.640625 223.980469 17.316406 L 356.558594 155.246094 C 370.03125 168.949219 375.371094 182.34375 372.40625 195.03125 C 366.757812 219.367188 333.640625 230.925781 301.652344 242.097656 C 291.992188 245.476562 282.097656 248.917969 274.398438 252.390625 C 274.644531 252.53125 274.875 252.65625 275.109375 252.777344 C 286.835938 259.382812 304.535156 269.367188 297.992188 285.941406 C 290.648438 304.96875 276.742188 308.6875 264.460938 311.992188 C 256.09375 314.226562 247.484375 316.527344 238.332031 323.917969 C 242.886719 326.480469 247.964844 330.308594 248.828125 337.253906 C 249.289062 341.019531 248.503906 346.652344 242.175781 352.144531 C 228.65625 363.519531 204.984375 372.652344 185.957031 372.652344 Z M 136.621094 316.757812 C 138.796875 317.546875 141.726562 318.070312 144.613281 318.59375 C 155.679688 320.601562 174.199219 323.980469 178.457031 348.285156 C 182.285156 351.820312 203.378906 349.074219 219.382812 339.890625 C 215.476562 337.359375 211.699219 333.734375 210.710938 327.964844 C 210.09375 324.320312 210.492188 318.75 216.003906 313.007812 C 231.835938 296.742188 247.238281 292.625 258.488281 289.597656 C 268.535156 286.914062 272.4375 285.632812 275.277344 280.152344 C 272.53125 277.886719 267.007812 274.753906 263.75 272.933594 C 253.917969 267.390625 244.660156 262.175781 244.121094 252.359375 C 243.949219 249.320312 244.628906 243.519531 251.082031 238.875 C 261.082031 231.726562 277.097656 226.125 294.011719 220.214844 C 315.152344 212.824219 347.082031 201.667969 349.859375 189.753906 C 351.234375 183.890625 344.289062 175.742188 340.015625 171.402344 C 339.96875 171.375 339.9375 171.34375 339.90625 171.3125 L 207.667969 33.71875 C 202.175781 28.535156 194.507812 25.464844 186.464844 25.464844 C 186.28125 25.464844 186.09375 25.464844 185.894531 25.464844 C 178.257812 25.464844 170.988281 28.503906 165.695312 33.84375 L 38.226562 166.574219 C 25.125 179.875 26.28125 184.800781 26.28125 184.84375 C 27.667969 189.984375 48.101562 195.570312 59.074219 198.566406 C 72.4375 202.207031 86.28125 205.988281 96.21875 212.40625 C 103.316406 217.113281 103.703125 223.441406 103.550781 225.957031 C 102.902344 236.140625 92.792969 241.125 81.066406 246.898438 C 79.214844 247.808594 76.835938 248.980469 74.550781 250.183594 C 82.359375 253.59375 93.996094 257.453125 101.976562 260.09375 C 124.257812 267.453125 138.300781 272.421875 145.292969 279.535156 C 158.59375 293.410156 144.890625 307.917969 139.722656 313.363281 C 138.84375 314.320312 137.65625 315.585938 136.621094 316.757812 Z M 276.667969 281.558594 L 276.820312 281.558594 Z M 276.464844 277.5 C 276.449219 277.515625 276.449219 277.53125 276.433594 277.546875 C 276.449219 277.53125 276.449219 277.515625 276.464844 277.5 Z M 66.929688 245.863281 C 66.929688 245.878906 66.945312 245.894531 66.960938 245.894531 C 66.945312 245.894531 66.929688 245.878906 66.929688 245.863281 Z M 66.929688 245.863281"/><path fill="#4B1A2F" d="M 175.785156 149.226562 C 174.335938 149.226562 172.886719 148.949219 171.496094 148.410156 C 168.023438 147.023438 165.433594 144.042969 164.550781 140.417969 L 161.082031 126.25 L 156.511719 136.28125 C 154.628906 140.402344 150.523438 143.054688 145.988281 143.054688 C 145.972656 143.054688 145.957031 143.054688 145.941406 143.054688 L 56.1875 142.746094 C 49.800781 142.730469 44.644531 137.53125 44.660156 131.140625 C 44.675781 124.753906 49.859375 119.597656 56.234375 119.597656 C 56.25 119.597656 56.265625 119.597656 56.28125 119.597656 L 138.535156 119.890625 L 153.828125 86.265625 C 155.863281 81.757812 160.492188 78.996094 165.449219 79.523438 C 170.355469 79.984375 174.445312 83.503906 175.617188 88.285156 L 183.179688 119.152344 L 204.121094 105.695312 C 207.683594 103.410156 212.191406 103.273438 215.941406 105.277344 L 222.746094 109.011719 L 225.199219 93.964844 C 225.863281 89.875 228.6875 86.449219 232.578125 84.984375 C 236.40625 83.535156 240.832031 84.257812 244.027344 86.914062 L 259.785156 100 L 269.738281 85.140625 C 273.273438 79.84375 280.449219 78.394531 285.785156 81.945312 C 291.09375 85.492188 292.53125 92.683594 288.964844 98.007812 L 271.898438 123.550781 C 270.09375 126.265625 267.191406 128.101562 263.933594 128.566406 C 260.800781 129.058594 257.40625 128.101562 254.875 126.019531 L 244.816406 117.65625 L 242.976562 128.875 C 242.375 132.578125 240.015625 135.757812 236.636719 137.40625 C 233.242188 139.058594 229.289062 138.964844 226.003906 137.160156 L 210.878906 128.875 L 182.082031 147.375 C 180.167969 148.609375 177.976562 149.226562 175.785156 149.226562 Z M 175.785156 149.226562"/><path fill="#4B1A2F" d="M 307.484375 346.203125 C 299.816406 346.203125 292.484375 343.054688 287.792969 337.050781 C 281.527344 329.011719 280.539062 315.941406 292.53125 304.84375 C 295.246094 302.332031 298.917969 301.25 302.640625 301.976562 C 319.832031 305.371094 327.964844 316.402344 329.675781 324.800781 C 331.050781 331.496094 328.75 337.792969 323.703125 341.234375 C 323.640625 341.28125 323.582031 341.3125 323.503906 341.359375 C 318.519531 344.628906 312.917969 346.203125 307.484375 346.203125 Z M 317.175781 331.683594 L 317.332031 331.683594 Z M 317.175781 331.683594"/><path fill="#4B1A2F" d="M 69.167969 338.671875 C 62.746094 338.671875 56.726562 336.417969 51.757812 332.066406 C 41.035156 322.855469 42.886719 312.886719 44.183594 309.011719 C 48.425781 296.390625 64.105469 289.816406 76.882812 289.058594 C 77.113281 289.042969 77.34375 289.042969 77.578125 289.042969 C 88.8125 288.550781 98.332031 292.375 103.796875 299.691406 C 106.1875 302.902344 106.742188 307.113281 105.292969 310.847656 C 100.09375 324.027344 88.347656 334.875 76.035156 337.839844 C 73.71875 338.394531 71.417969 338.671875 69.167969 338.671875 Z M 67.855469 315.246094 C 68.441406 315.539062 69.289062 315.648438 70.617188 315.339844 C 72.40625 314.90625 74.335938 313.84375 76.1875 312.375 C 72.683594 312.902344 69.707031 314.121094 67.855469 315.246094 Z M 67.855469 315.246094"/><path fill="#4B1A2F" d="M 341.464844 294.167969 C 330.261719 294.167969 318.917969 292.082031 313.179688 289.289062 C 304.875 285.246094 303.980469 278.765625 303.980469 276.15625 C 303.980469 275.183594 304.105469 274.226562 304.335938 273.285156 C 307.976562 259.042969 321.375 248.980469 337.839844 248.023438 C 338.148438 247.992188 338.441406 247.964844 338.75 247.949219 C 356.558594 247.222656 370.214844 257.007812 373.132812 272.253906 C 374.367188 278.273438 372.128906 284.167969 367.113281 288.085938 C 361.511719 292.484375 351.542969 294.167969 341.464844 294.167969 Z M 350.464844 276.914062 C 350.464844 276.914062 350.464844 276.929688 350.464844 276.929688 C 350.464844 276.929688 350.464844 276.914062 350.464844 276.914062 Z M 350.464844 276.914062"/></svg>