<svg xmlns="http://www.w3.org/2000/svg" width="375" viewBox="0 0 375 375" height="375" version="1.0"><path fill="#582C3E" d="M 105.46875 257.8125 C 99 257.8125 93.75 252.5625 93.75 246.09375 L 93.75 89.84375 C 93.75 83.375 99 78.125 105.46875 78.125 L 140.625 78.125 C 170.78125 78.125 195.3125 102.65625 195.3125 132.8125 C 195.3125 162.96875 170.78125 187.5 140.625 187.5 L 117.1875 187.5 L 117.1875 246.09375 C 117.1875 252.5625 111.9375 257.8125 105.46875 257.8125 Z M 117.1875 164.0625 L 140.625 164.0625 C 157.859375 164.0625 171.875 150.046875 171.875 132.8125 C 171.875 115.578125 157.859375 101.5625 140.625 101.5625 L 117.1875 101.5625 Z M 117.1875 164.0625"/><path fill="#582C3E" d="M 246.09375 257.8125 L 222.65625 257.8125 C 216.1875 257.8125 210.9375 252.5625 210.9375 246.09375 C 210.9375 239.625 216.1875 234.375 222.65625 234.375 L 246.09375 234.375 C 252.546875 234.375 257.8125 229.125 257.8125 222.65625 C 257.8125 216.1875 252.546875 210.9375 246.09375 210.9375 C 226.71875 210.9375 210.9375 195.171875 210.9375 175.78125 C 210.9375 156.390625 226.71875 140.625 246.09375 140.625 L 269.53125 140.625 C 276 140.625 281.25 145.875 281.25 152.34375 C 281.25 158.8125 276 164.0625 269.53125 164.0625 L 246.09375 164.0625 C 239.640625 164.0625 234.375 169.3125 234.375 175.78125 C 234.375 182.25 239.640625 187.5 246.09375 187.5 C 265.46875 187.5 281.25 203.265625 281.25 222.65625 C 281.25 242.046875 265.46875 257.8125 246.09375 257.8125 Z M 246.09375 257.8125"/><path fill="#582C3E" d="M 332.015625 375 L 42.984375 375 C 19.28125 375 0 355.71875 0 332.015625 L 0 42.984375 C 0 19.28125 19.28125 0 42.984375 0 L 332.015625 0 C 355.71875 0 375 19.28125 375 42.984375 L 375 332 C 375 355.71875 355.71875 375 332.015625 375 Z M 42.984375 23.4375 C 32.21875 23.4375 23.4375 32.21875 23.4375 42.984375 L 23.4375 332 C 23.4375 342.78125 32.21875 351.546875 42.984375 351.546875 L 332.015625 351.546875 C 342.78125 351.546875 351.5625 342.765625 351.5625 332 L 351.5625 42.984375 C 351.5625 32.203125 342.78125 23.4375 332.015625 23.4375 Z M 42.984375 23.4375"/></svg>