<svg xmlns="http://www.w3.org/2000/svg" width="375" viewBox="0 0 375 375" height="375" version="1.0"><path fill="#582C3E" d="M 188.914062 161.988281 C 191.0625 166.164062 195.289062 168.75 199.976562 168.75 L 216.527344 168.75 C 220.53125 168.75 224.339844 166.796875 226.660156 163.5 L 259.324219 117.480469 L 292.066406 163.5 C 294.410156 166.796875 298.21875 168.75 302.222656 168.75 L 318.773438 168.75 C 323.460938 168.75 327.683594 166.164062 329.832031 161.988281 C 332.007812 157.8125 331.640625 152.832031 328.929688 149 L 282.957031 84.351562 L 328.929688 19.75 C 331.640625 15.917969 332.007812 10.9375 329.832031 6.761719 C 327.683594 2.589844 323.460938 0 318.773438 0 L 302.222656 0 C 298.21875 0 294.410156 1.953125 292.089844 5.25 L 259.421875 51.269531 L 226.683594 5.25 C 224.339844 1.953125 220.53125 0 216.527344 0 L 199.976562 0 C 195.289062 0 191.0625 2.589844 188.914062 6.761719 C 186.742188 10.9375 187.109375 15.917969 189.820312 19.75 L 195.628906 27.90625 C 197.605469 30.714844 201.539062 31.371094 204.34375 29.371094 C 207.152344 27.367188 207.8125 23.460938 205.808594 20.65625 L 199.976562 12.5 L 216.480469 12.476562 L 249.21875 58.519531 C 251.5625 61.792969 255.347656 63.769531 259.375 63.769531 C 263.402344 63.769531 267.1875 61.792969 269.507812 58.519531 L 302.222656 12.5 L 318.726562 12.523438 L 272.777344 77.125 C 269.703125 81.46875 269.703125 87.28125 272.777344 91.625 L 318.773438 156.25 L 302.269531 156.273438 L 269.53125 110.230469 C 267.1875 106.957031 263.402344 104.980469 259.375 104.980469 C 255.347656 104.980469 251.5625 106.957031 249.242188 110.230469 L 216.527344 156.25 L 200.023438 156.226562 L 245.972656 91.625 C 249.046875 87.28125 249.046875 81.46875 245.972656 77.125 L 218.628906 38.695312 C 216.625 35.890625 212.71875 35.230469 209.910156 37.230469 C 207.105469 39.210938 206.445312 43.117188 208.445312 45.921875 L 235.789062 84.398438 L 189.820312 149 C 187.109375 152.832031 186.742188 157.8125 188.914062 161.988281"/><path fill="#582C3E" d="M 75 0 L 56.25 0 C 49.367188 0 43.75 5.617188 43.75 12.5 L 43.75 106.25 C 43.75 123.460938 50.953125 140.089844 63.523438 151.855469 C 75.21875 162.84375 90.257812 168.75 106.199219 168.75 C 107.59375 168.75 109.007812 168.703125 110.398438 168.605469 C 143.113281 166.503906 168.75 138.257812 168.75 104.320312 L 168.75 62.5 C 168.75 59.058594 165.941406 56.25 162.5 56.25 C 159.058594 56.25 156.25 59.058594 156.25 62.5 L 156.25 104.320312 C 156.25 131.691406 135.765625 154.445312 109.59375 156.128906 C 95.582031 157.082031 82.25 152.296875 72.070312 142.75 C 61.863281 133.179688 56.25 120.214844 56.25 106.25 L 56.25 12.5 L 75 12.5 L 75 105.175781 C 75 121.730469 87.402344 135.863281 103.222656 137.355469 C 112.011719 138.183594 120.777344 135.277344 127.269531 129.371094 C 133.765625 123.460938 137.5 115.039062 137.5 106.25 L 137.5 12.5 L 156.25 12.5 L 156.25 37.5 C 156.25 40.941406 159.058594 43.75 162.5 43.75 C 165.941406 43.75 168.75 40.941406 168.75 37.5 L 168.75 12.5 C 168.75 5.617188 163.132812 0 156.25 0 L 137.5 0 C 130.613281 0 125 5.617188 125 12.5 L 125 106.25 C 125 111.523438 122.753906 116.578125 118.871094 120.117188 C 114.917969 123.730469 109.8125 125.390625 104.394531 124.902344 C 94.921875 124.023438 87.5 115.355469 87.5 105.175781 L 87.5 12.5 C 87.5 5.617188 81.882812 0 75 0"/><path fill="#582C3E" d="M 156.25 206.25 L 137.5 206.25 C 130.613281 206.25 125 211.867188 125 218.75 L 125 312.5 C 125 317.773438 122.753906 322.828125 118.871094 326.367188 C 114.917969 329.957031 109.8125 331.640625 104.394531 331.175781 C 94.921875 330.273438 87.5 321.605469 87.5 311.425781 L 87.5 218.75 C 87.5 211.867188 81.882812 206.25 75 206.25 L 56.25 206.25 C 49.367188 206.25 43.75 211.867188 43.75 218.75 L 43.75 312.5 C 43.75 329.710938 50.953125 346.339844 63.523438 358.105469 C 75.21875 369.09375 90.257812 375 106.199219 375 C 107.59375 375 109.007812 374.953125 110.398438 374.855469 C 143.113281 372.753906 168.75 344.507812 168.75 310.570312 L 168.75 268.75 C 168.75 265.308594 165.941406 262.5 162.5 262.5 C 159.058594 262.5 156.25 265.308594 156.25 268.75 L 156.25 310.570312 C 156.25 337.941406 135.765625 360.695312 109.59375 362.378906 C 95.582031 363.332031 82.25 358.546875 72.070312 348.976562 C 61.863281 339.429688 56.25 326.464844 56.25 312.5 L 56.25 218.75 L 75 218.75 L 75 311.425781 C 75 327.980469 87.402344 342.113281 103.222656 343.605469 C 112.011719 344.457031 120.777344 341.527344 127.269531 335.621094 C 133.765625 329.710938 137.5 321.289062 137.5 312.5 L 137.5 218.75 L 156.25 218.75 L 156.25 243.75 C 156.25 247.191406 159.058594 250 162.5 250 C 165.941406 250 168.75 247.191406 168.75 243.75 L 168.75 218.75 C 168.75 211.867188 163.132812 206.25 156.25 206.25"/><path fill="#582C3E" d="M 318.75 206.25 L 206.25 206.25 C 199.363281 206.25 193.75 211.867188 193.75 218.75 L 193.75 237.5 C 193.75 244.386719 199.363281 250 206.25 250 L 243.75 250 L 243.75 331.25 L 206.25 331.25 C 199.363281 331.25 193.75 336.867188 193.75 343.75 L 193.75 362.5 C 193.75 369.386719 199.363281 375 206.25 375 L 318.75 375 C 325.632812 375 331.25 369.386719 331.25 362.5 L 331.25 343.75 C 331.25 336.867188 325.632812 331.25 318.75 331.25 L 281.25 331.25 L 281.25 287.5 C 281.25 284.058594 278.441406 281.25 275 281.25 C 271.558594 281.25 268.75 284.058594 268.75 287.5 L 268.75 331.25 C 268.75 338.136719 274.363281 343.75 281.25 343.75 L 318.75 343.75 L 318.75 362.5 L 206.25 362.5 L 206.25 343.75 L 243.75 343.75 C 250.632812 343.75 256.25 338.136719 256.25 331.25 L 256.25 250 C 256.25 243.117188 250.632812 237.5 243.75 237.5 L 206.25 237.5 L 206.25 218.75 L 318.75 218.75 L 318.75 237.5 L 281.25 237.5 C 274.363281 237.5 268.75 243.117188 268.75 250 L 268.75 262.5 C 268.75 265.941406 271.558594 268.75 275 268.75 C 278.441406 268.75 281.25 265.941406 281.25 262.5 L 281.25 250 L 318.75 250 C 325.632812 250 331.25 244.386719 331.25 237.5 L 331.25 218.75 C 331.25 211.867188 325.632812 206.25 318.75 206.25"/><path fill="#582C3E" d="M 368.75 181.25 L 6.25 181.25 C 2.808594 181.25 0 184.058594 0 187.5 C 0 190.941406 2.808594 193.75 6.25 193.75 L 368.75 193.75 C 372.191406 193.75 375 190.941406 375 187.5 C 375 184.058594 372.191406 181.25 368.75 181.25"/></svg>