<svg xmlns="http://www.w3.org/2000/svg" width="375" viewBox="0 0 375 375" height="375" version="1.0"><path fill="#582C3E" d="M 328.296875 64.09375 C 326.875 62.234375 325.34375 60.734375 323.828125 59.171875 C 289.625 22.84375 241.234375 0 187.5 0 C 84.109375 0 0 84.109375 0 187.5 C 0 290.890625 84.109375 375 187.5 375 C 290.890625 375 375 290.890625 375 187.5 C 375 140.234375 357.28125 97.109375 328.296875 64.09375 Z M 187.5 15.625 C 224.875 15.625 259.390625 27.75 287.625 48.078125 C 277.03125 50.9375 265.625 59.984375 265.625 85.9375 C 265.625 96.953125 273.65625 110.59375 282.953125 126.375 C 295.359375 147.453125 310.796875 173.6875 305.015625 193.078125 C 304.84375 193.640625 304.890625 194.203125 304.859375 194.765625 C 296.046875 222.515625 284.9375 257.40625 275.75 286.265625 L 219.71875 111.21875 C 223.015625 110.640625 226.1875 109.921875 229.03125 108.96875 C 233.125 107.609375 235.328125 103.1875 233.96875 99.09375 C 232.609375 95 228.203125 92.78125 224.09375 94.15625 C 213.25 97.765625 194.34375 97.65625 182.96875 97.65625 L 176.40625 97.65625 C 165.109375 97.65625 146.125 97.765625 135.296875 94.140625 C 131.171875 92.78125 126.765625 95 125.40625 99.09375 C 124.03125 103.1875 126.25 107.609375 130.34375 108.96875 C 135.765625 110.78125 142.328125 111.71875 149.015625 112.34375 L 178.84375 196.40625 L 149.140625 281.25 L 94.71875 111.21875 C 98.03125 110.625 101.203125 109.921875 104.03125 108.96875 C 108.125 107.609375 110.328125 103.1875 108.96875 99.09375 C 107.609375 95 103.21875 92.78125 99.09375 94.15625 C 88.265625 97.765625 69.328125 97.796875 57.9375 97.65625 L 54.6875 97.65625 C 49.1875 97.65625 45.140625 97.109375 41.953125 96.515625 C 72.375 48.03125 126.15625 15.625 187.5 15.625 Z M 15.625 187.5 C 15.625 164.9375 20.109375 143.4375 28.046875 123.6875 L 103.9375 337.5625 C 51.3125 308.140625 15.625 251.9375 15.625 187.5 Z M 140.6875 352.734375 L 187.1875 219.890625 L 234.328125 352.734375 C 219.40625 356.953125 203.75 359.375 187.5 359.375 C 171.25 359.375 155.59375 356.953125 140.6875 352.734375 Z M 276.9375 333.984375 C 287.078125 302.1875 314.625 215.75 327.75 174.234375 C 335.703125 149.109375 339.953125 127.625 340.71875 110.0625 C 352.5625 133.359375 359.375 159.625 359.375 187.5 C 359.375 249.484375 326.28125 303.75 276.9375 333.984375 Z M 276.9375 333.984375"/></svg>